<svg xmlns="http://www.w3.org/2000/svg" viewBox="0 0 128 128"><path fill="#659AD2" d="M115.4 30.7L67.1 2.9c-.8-.5-1.9-.7-3.1-.7-1.2 0-2.3.3-3.1.7l-48 27.9c-1.7 1-2.9 3.5-2.9 5.4v55.7c0 1.1.2 2.3.9 3.4.7 1.1 1.7 2 2.4 2.5l48 27.9c.8.5 1.9.7 3.1.7 1.2 0 2.3-.3 3.1-.7l48-27.9c.8-.5 1.9-1.4 2.4-2.5.7-1.1.9-2.2.9-3.4V36.1c0-1.9-1.2-4.4-2.5-5.4zm-53.7 70.1c-1.4.1-2.7.1-4.1.1-15.6 0-28.2-12.6-28.2-28.2s12.6-28.2 28.2-28.2c4.8 0 9.3 1.3 13.3 3.5l-6.1 10.6c-2.2-1.4-4.6-2.1-7.2-2.1-8.3 0-15 6.7-15 15s6.7 15 15 15c2.8 0 5.4-.8 7.6-2.2l6.1 10.6c-3.1 1.9-6.5 3.4-10.2 4.1-.8.1-1.6.2-2.4.2v1.6zm36.5-15.5h-9.2v-20h9.2v20zm0-23.2h-9.2V44.8h9.2v17.3zM97 85.3h-9.2v-20H97v20zm0-23.2h-9.2V44.8H97v17.3z"/></svg>
