<svg xmlns="http://www.w3.org/2000/svg" viewBox="0 0 128 128"><path fill="#9B4F96" d="M115.4 30.7L67.1 2.9c-.8-.5-1.9-.7-3.1-.7-1.2 0-2.3.3-3.1.7l-48 27.9c-1.7 1-2.9 3.5-2.9 5.4v55.7c0 1.1.2 2.3.9 3.4.7 1.1 1.7 2 2.4 2.5l48 27.9c.8.5 1.9.7 3.1.7 1.2 0 2.3-.3 3.1-.7l48-27.9c.8-.5 1.9-1.4 2.4-2.5.7-1.1.9-2.2.9-3.4V36.1c0-1.9-1.2-4.4-2.5-5.4zM64 88.5c-13.5 0-24.5-11-24.5-24.5s11-24.5 24.5-24.5c9.5 0 17.7 5.4 21.7 13.3l-11.4 6.6c-1.8-4-5.9-6.8-10.4-6.8-6.5 0-11.8 5.3-11.8 11.8s5.3 11.8 11.8 11.8c4.5 0 8.5-2.5 10.4-6.3l11.4 6.6c-4 7.4-12.2 12-21.7 12z"/><path fill="#68217A" d="M97 58.5h-4v-4h-4v4h-4v4h4v4h4v-4h4zm14 0h-4v-4h-4v4h-4v4h4v4h4v-4h4z"/></svg>
