<svg xmlns="http://www.w3.org/2000/svg" viewBox="0 0 128 128"><path fill="#00ADD8" d="M101.4 57.3c.5-3.8-1.3-7.8-4.6-10-3.2-2.2-7.4-2.4-10.8-.6-3.4 1.8-5.6 5.5-5.6 9.4v26.2c0 3.9 2.2 7.6 5.6 9.4 3.4 1.8 7.6 1.6 10.8-.6 3.3-2.2 5.1-6.2 4.6-10h10c.2 5.9-2.3 11.6-6.7 15.4-4.4 3.8-10.3 5.5-16.1 4.7-5.8-.9-11-4.1-14.1-8.8-3-4.7-3.9-10.5-2.4-16 1.6-5.5 5.4-10.1 10.4-12.7 5-2.6 10.9-2.9 16.1-1 5.2 1.9 9.5 5.8 11.8 10.7l-9 5.9z"/><path fill="#00ADD8" d="M73.7 32.5l-9.7 5.6-14.5 8.4c-1.6.9-3.5.9-5 0L30 38.1l-9.7-5.6c-1.5-.9-2.5-2.6-2.5-4.4v-11.2c0-1.8 1-3.5 2.5-4.4l9.7-5.6 14.5-8.4c1.6-.9 3.5-.9 5 0L64 7l9.7 5.6c1.5.9 2.5 2.6 2.5 4.4v11.2c0 1.8-1 3.5-2.5 4.3z"/><path fill="#00ADD8" d="M47.5 86.1c0 4.9-4 8.9-8.9 8.9s-8.9-4-8.9-8.9 4-8.9 8.9-8.9 8.9 4 8.9 8.9zm0 0"/></svg>
