<svg xmlns="http://www.w3.org/2000/svg" viewBox="0 0 128 128"><path fill="#007acc" d="M2 63.91v62.5h125V1.41H2Zm100.73-5a15.56 15.56 0 0 1 7.82 4.5 20.58 20.58 0 0 1 3 4c0 .16-5.4 3.81-8.69 5.85-.12.08-.6-.44-1.13-1.23a6.29 6.29 0 0 0-5.24-3c-3.36-.25-5.53 1.44-5.51 4.28a3.85 3.85 0 0 0 .4 1.91c.67 1.44 1.91 2.34 6.32 4.59 8.12 4.13 11.59 6.84 13.45 10.49a17.43 17.43 0 0 1 1.23 9.33 16.21 16.21 0 0 1-5.5 10.47c-2.87 2.4-6.6 3.84-11.51 4.44a35.43 35.43 0 0 1-8.83-.11 22.79 22.79 0 0 1-12.49-6.14 20.1 20.1 0 0 1-2.8-4.16c.06-.14 2.16-1.46 4.68-2.93l4.16-2.46.87 1.27a13.69 13.69 0 0 0 4 4.09c2.89 1.64 6.87 1.41 8.89-.48a4.2 4.2 0 0 0 1.47-3.37c0-1.3-.25-1.86-1.23-2.88-1.25-1.3-3.81-2.49-9.38-4.34-6.36-2.11-9.1-3.41-11.67-5.57a15.53 15.53 0 0 1-4.56-7.06 24.36 24.36 0 0 1-.37-8.66 15.09 15.09 0 0 1 4.9-8.95c2.74-2.36 5.92-3.82 10.17-4.68a35.58 35.58 0 0 1 9.94.09ZM49.36 67.73l.07 5.55H38v42h-10.7V73.28H16.7v-5.4q0-2.73.09-5.52c.06-.47.93-.52 16-.52h15.53l.07 5.89Z"/></svg>
